<svg width="16" height="16" viewBox="0 0 16 16" fill="none" xmlns="http://www.w3.org/2000/svg">
<path fill-rule="evenodd" clip-rule="evenodd" d="M2.66665 3.33333C2.30151 3.33333 1.99999 3.63486 1.99999 4V12C1.99999 12.3651 2.30151 12.6667 2.66665 12.6667H13.3333C13.6985 12.6667 14 12.3651 14 12V4C14 3.63486 13.6985 3.33333 13.3333 3.33333H2.66665ZM0.666653 4C0.666653 2.89848 1.56513 2 2.66665 2H13.3333C14.4348 2 15.3333 2.89848 15.3333 4V12C15.3333 13.1015 14.4348 14 13.3333 14H2.66665C1.56513 14 0.666653 13.1015 0.666653 12V4Z" fill="#0E0F12"/>
<path fill-rule="evenodd" clip-rule="evenodd" d="M0.787165 3.61769C0.998308 3.31606 1.41399 3.2427 1.71563 3.45385L6.85306 7.05005C7.5417 7.5321 8.45827 7.5321 9.14691 7.05005L14.2843 3.45385C14.586 3.2427 15.0017 3.31606 15.2128 3.61769C15.424 3.91932 15.3506 4.33501 15.049 4.54615L9.91153 8.14236C8.7638 8.94577 7.23618 8.94577 6.08845 8.14236L0.951011 4.54615C0.649378 4.33501 0.576022 3.91932 0.787165 3.61769Z" fill="#0E0F12"/>
</svg>
