<svg width="24" height="16" viewBox="0 0 24 16" fill="none" xmlns="http://www.w3.org/2000/svg">
<rect opacity="0.15" width="24" height="16" rx="4" fill="white"/>
<path opacity="0.6" d="M16.6664 4C16.4896 4 16.32 4.0702 16.1949 4.19516C16.0698 4.32012 15.9996 4.4896 15.9996 4.66632V7.33158C15.9996 7.5083 15.9293 7.67777 15.8043 7.80273C15.6792 7.92769 15.5096 7.99789 15.3327 7.99789H8.93737L9.80431 7.13835C9.92988 7.01288 10.0004 6.8427 10.0004 6.66526C10.0004 6.48782 9.92988 6.31765 9.80431 6.19218C9.67874 6.06671 9.50842 5.99622 9.33083 5.99622C9.15324 5.99622 8.98292 6.06671 8.85735 6.19218L6.85672 8.19112C6.79601 8.25449 6.74842 8.32922 6.71668 8.41101C6.64998 8.57323 6.64998 8.75519 6.71668 8.91741C6.74842 8.9992 6.79601 9.07392 6.85672 9.13729L8.85735 11.1362C8.91934 11.1987 8.9931 11.2483 9.07436 11.2821C9.15563 11.3159 9.24279 11.3333 9.33083 11.3333C9.41886 11.3333 9.50603 11.3159 9.58729 11.2821C9.66856 11.2483 9.74232 11.1987 9.80431 11.1362C9.86682 11.0743 9.91643 11.0006 9.95028 10.9194C9.98414 10.8382 10.0016 10.7511 10.0016 10.6632C10.0016 10.5752 9.98414 10.4881 9.95028 10.4069C9.91643 10.3257 9.86682 10.252 9.80431 10.1901L8.93737 9.33052H15.3327C15.8633 9.33052 16.3722 9.11992 16.7474 8.74505C17.1225 8.37017 17.3333 7.86173 17.3333 7.33158V4.66632C17.3333 4.4896 17.2631 4.32012 17.138 4.19516C17.0129 4.0702 16.8433 4 16.6664 4Z" fill="white"/>
</svg>
