<svg width="16" height="16" viewBox="0 0 16 16" fill="none" xmlns="http://www.w3.org/2000/svg">
<path d="M14.537 6.69434H14V6.66668H8V9.33334H11.7677C11.218 10.8857 9.741 12 8 12C5.791 12 4 10.209 4 8.00001C4 5.79101 5.791 4.00001 8 4.00001C9.01967 4.00001 9.94734 4.38468 10.6537 5.01301L12.5393 3.12734C11.3487 2.01768 9.756 1.33334 8 1.33334C4.31834 1.33334 1.33334 4.31834 1.33334 8.00001C1.33334 11.6817 4.31834 14.6667 8 14.6667C11.6817 14.6667 14.6667 11.6817 14.6667 8.00001C14.6667 7.55301 14.6207 7.11668 14.537 6.69434Z" fill="#FFC107"/>
<path d="M2.10214 4.89701L4.29248 6.50334C4.88514 5.03601 6.32048 4.00001 8.00014 4.00001C9.01981 4.00001 9.94748 4.38468 10.6538 5.01301L12.5395 3.12734C11.3488 2.01768 9.75614 1.33334 8.00014 1.33334C5.43948 1.33334 3.21881 2.77901 2.10214 4.89701Z" fill="#FF3D00"/>
<path d="M7.99987 14.6662C9.72187 14.6662 11.2865 14.0072 12.4695 12.9356L10.4062 11.1896C9.71439 11.7157 8.86903 12.0002 7.99987 11.9996C6.26587 11.9996 4.79354 10.8939 4.23887 9.35089L2.06487 11.0259C3.16821 13.1849 5.40887 14.6662 7.99987 14.6662Z" fill="#4CAF50"/>
<path d="M14.537 6.69432H14V6.66666H8V9.33332H11.7677C11.5047 10.0721 11.0311 10.7177 10.4053 11.1903L10.4063 11.1897L12.4697 12.9357C12.3237 13.0683 14.6667 11.3333 14.6667 7.99999C14.6667 7.55299 14.6207 7.11666 14.537 6.69432Z" fill="#1976D2"/>
</svg>
