<svg width="28" height="28" viewBox="0 0 28 28" fill="none" xmlns="http://www.w3.org/2000/svg">
<path fill-rule="evenodd" clip-rule="evenodd" d="M16.251 16.3574C16.8482 15.7323 17.1837 14.8844 17.1837 14.0004C17.1837 13.1163 16.8482 12.2685 16.251 11.6433C15.6539 11.0182 14.8439 10.667 13.9994 10.667C13.1549 10.667 12.3449 11.0182 11.7478 11.6433C11.1506 12.2685 10.8151 13.1163 10.8151 14.0004C10.8151 14.8844 11.1506 15.7323 11.7478 16.3574C12.3449 16.9825 13.1549 17.3337 13.9994 17.3337C14.8439 17.3337 15.6539 16.9825 16.251 16.3574ZM15.1252 15.1789C15.4238 14.8663 15.5915 14.4424 15.5915 14.0004C15.5915 13.5583 15.4238 13.1344 15.1252 12.8218C14.8266 12.5093 14.4217 12.3337 13.9994 12.3337C13.5771 12.3337 13.1722 12.5093 12.8736 12.8218C12.575 13.1344 12.4072 13.5583 12.4072 14.0004C12.4072 14.4424 12.575 14.8663 12.8736 15.1789C13.1722 15.4914 13.5771 15.667 13.9994 15.667C14.4217 15.667 14.8266 15.4914 15.1252 15.1789Z" fill="#747474"/>
<path fill-rule="evenodd" clip-rule="evenodd" d="M23.0618 13.3263C21.7944 9.35893 18.2157 6.5 14 6.5C9.78347 6.5 6.20545 9.35893 4.93817 13.3263C4.79836 13.7639 4.79836 14.2361 4.93817 14.6737C6.20545 18.6411 9.78347 21.5 14 21.5C18.2165 21.5 21.7945 18.6411 23.0618 14.6737C23.2016 14.2361 23.2016 13.7639 23.0618 13.3263ZM6.68877 14.804C7.91086 17.7634 10.7259 19.8333 14 19.8333C17.2741 19.8333 20.0891 17.7634 21.3112 14.804C21.5235 14.29 21.5235 13.71 21.3112 13.196C20.0891 10.2366 17.2741 8.16667 14 8.16667C10.7259 8.16667 7.91086 10.2366 6.68877 13.196C6.47649 13.71 6.47649 14.29 6.68877 14.804Z" fill="#747474"/>
</svg>
