<svg width="16" height="16" viewBox="0 0 16 16" fill="none" xmlns="http://www.w3.org/2000/svg">
<path d="M6.5 10.963C6.5 11.3721 6.16421 11.7037 5.75 11.7037C5.33579 11.7037 5 11.3721 5 10.963C5 10.5539 5.33579 10.2222 5.75 10.2222C6.16421 10.2222 6.5 10.5539 6.5 10.963Z" fill="#0E0F12"/>
<path d="M8 11.7037C8.41421 11.7037 8.75 11.3721 8.75 10.963C8.75 10.5539 8.41421 10.2222 8 10.2222C7.58579 10.2222 7.25 10.5539 7.25 10.963C7.25 11.3721 7.58579 11.7037 8 11.7037Z" fill="#0E0F12"/>
<path d="M10.25 11.7037C10.6642 11.7037 11 11.3721 11 10.963C11 10.5539 10.6642 10.2222 10.25 10.2222C9.83579 10.2222 9.5 10.5539 9.5 10.963C9.5 11.3721 9.83579 11.7037 10.25 11.7037Z" fill="#0E0F12"/>
<path fill-rule="evenodd" clip-rule="evenodd" d="M11.6 4.96971V6.78789H12.2C13.1941 6.78789 14 7.60192 14 8.60607V12.8485C14 13.8526 13.1941 14.6667 12.2 14.6667H3.8C2.80589 14.6667 2 13.8526 2 12.8485V8.60607C2 7.60192 2.80589 6.78789 3.8 6.78789H4.4V4.96971C4.4 4.00528 4.77928 3.08036 5.45442 2.39841C6.12955 1.71646 7.04522 1.33334 8 1.33334C8.95478 1.33334 9.87045 1.71646 10.5456 2.39841C11.2207 3.08036 11.6 4.00528 11.6 4.96971ZM3.2 8.60607C3.2 8.27135 3.46863 8.00001 3.8 8.00001H12.2C12.5314 8.00001 12.8 8.27135 12.8 8.60607V12.8485C12.8 13.1832 12.5314 13.4546 12.2 13.4546H3.8C3.46863 13.4546 3.2 13.1832 3.2 12.8485V8.60607ZM6.3028 3.2555C6.75288 2.80087 7.36333 2.54546 7.99985 2.54546C8.63637 2.54546 9.24682 2.80087 9.69691 3.2555C10.147 3.71013 10.3999 4.32675 10.3999 4.9697V6.78788H5.59985V4.9697C5.59985 4.32675 5.85271 3.71013 6.3028 3.2555Z" fill="#0E0F12"/>
</svg>
