<svg width="16" height="16" viewBox="0 0 16 16" fill="none" xmlns="http://www.w3.org/2000/svg">
<path fill-rule="evenodd" clip-rule="evenodd" d="M1.33337 6.66668C1.33337 6.29849 1.63185 6.00001 2.00004 6.00001H11.3334C11.7016 6.00001 12 6.29849 12 6.66668C12 7.03487 11.7016 7.33334 11.3334 7.33334H2.00004C1.63185 7.33334 1.33337 7.03487 1.33337 6.66668Z" fill="#0E0F12"/>
<path fill-rule="evenodd" clip-rule="evenodd" d="M1.33337 4.00001C1.33337 3.63182 1.63185 3.33334 2.00004 3.33334H14C14.3682 3.33334 14.6667 3.63182 14.6667 4.00001C14.6667 4.3682 14.3682 4.66668 14 4.66668H2.00004C1.63185 4.66668 1.33337 4.3682 1.33337 4.00001Z" fill="#0E0F12"/>
<path fill-rule="evenodd" clip-rule="evenodd" d="M1.33337 9.33334C1.33337 8.96515 1.63185 8.66668 2.00004 8.66668H14C14.3682 8.66668 14.6667 8.96515 14.6667 9.33334C14.6667 9.70153 14.3682 10 14 10H2.00004C1.63185 10 1.33337 9.70153 1.33337 9.33334Z" fill="#0E0F12"/>
<path fill-rule="evenodd" clip-rule="evenodd" d="M1.33337 12C1.33337 11.6318 1.63185 11.3333 2.00004 11.3333H11.3334C11.7016 11.3333 12 11.6318 12 12C12 12.3682 11.7016 12.6667 11.3334 12.6667H2.00004C1.63185 12.6667 1.33337 12.3682 1.33337 12Z" fill="#0E0F12"/>
</svg>
