<svg width="22" height="22" viewBox="0 0 22 22" fill="none" xmlns="http://www.w3.org/2000/svg">
<path d="M5.53438 16.6719C5.3625 16.6375 5.225 16.6031 5.05312 16.5344C4.88125 16.4656 4.74375 16.4312 4.60625 16.3625C4.29687 16.225 4.02187 16.0531 3.74687 15.8469C3.19687 15.4687 2.75 14.9531 2.40625 14.3344C2.0625 13.75 1.85625 13.0625 1.82188 12.4094C1.7875 12.0656 1.82188 11.7562 1.85625 11.4125C1.89063 11.2406 1.925 11.1031 1.95937 10.9312C1.99375 10.7594 2.0625 10.6219 2.09687 10.45L2.13125 10.9312C2.13125 11.1031 2.16563 11.2406 2.2 11.4125C2.23438 11.7219 2.30313 12.0312 2.37188 12.3062C2.50938 12.8906 2.71563 13.4406 3.025 13.9562C3.33438 14.4719 3.67813 14.9531 4.125 15.4C4.33125 15.6062 4.57188 15.8125 4.8125 16.0187C4.91563 16.1219 5.05313 16.225 5.19063 16.3281L5.53438 16.6719ZM5.43125 17.9094C5.32813 17.9781 5.19062 18.0125 5.05312 18.0469C4.91562 18.0812 4.8125 18.1156 4.675 18.1156C4.43438 18.15 4.15938 18.1844 3.88438 18.15C3.36875 18.1156 2.81875 17.9781 2.37188 17.7375C1.89063 17.4969 1.47813 17.1187 1.20312 16.6719C1.06562 16.4656 0.928125 16.225 0.825 15.9844C0.790625 15.8812 0.75625 15.7437 0.721875 15.6062C0.721875 15.5031 0.6875 15.4 0.6875 15.2625C0.790625 15.3656 0.859375 15.4344 0.928125 15.5375C1.03125 15.6406 1.1 15.7437 1.16875 15.8125C1.34063 15.9844 1.47813 16.1562 1.65 16.2937C1.99375 16.6031 2.3375 16.8781 2.75 17.0844C3.12813 17.2906 3.575 17.4625 3.9875 17.6C4.19375 17.6687 4.43438 17.7031 4.675 17.7719C4.77813 17.8062 4.91563 17.8062 5.01875 17.8406C5.19063 17.875 5.29375 17.875 5.43125 17.9094V17.9094ZM13.2 1.20313C13.3719 1.2375 13.5094 1.30625 13.6812 1.375C13.8531 1.44375 13.9906 1.5125 14.1281 1.58125C14.4375 1.75313 14.7125 1.925 14.9875 2.13125C15.5375 2.54375 15.9844 3.09375 16.2938 3.7125C16.6031 4.33125 16.775 5.01875 16.775 5.67188C16.775 6.01563 16.7406 6.325 16.6719 6.66875C16.6375 6.84063 16.6031 6.97813 16.5344 7.15C16.4656 7.32188 16.4312 7.45938 16.3625 7.59688L16.3281 7.11563C16.3281 6.94375 16.3281 6.80625 16.2938 6.63438L16.1906 5.70625C16.0875 5.12188 15.8813 4.5375 15.6063 3.9875C15.3313 3.4375 14.9875 2.95625 14.575 2.50938C14.3688 2.26875 14.1281 2.0625 13.9219 1.82188C13.8187 1.71875 13.6813 1.61563 13.5438 1.5125L13.2 1.20313V1.20313ZM16.1906 1.06563C16.3281 1.1 16.4312 1.13438 16.5344 1.20313C16.6375 1.2375 16.775 1.30625 16.8781 1.375C17.0844 1.5125 17.2906 1.65 17.4969 1.82188C17.875 2.16563 18.1844 2.57813 18.3563 3.05938C18.5625 3.54063 18.6313 4.05625 18.5625 4.57188C18.5281 4.8125 18.4594 5.05313 18.3906 5.29375C18.3562 5.39688 18.2875 5.53438 18.2531 5.6375C18.1844 5.74063 18.15 5.84375 18.0469 5.94688V5.25938C18.0469 5.01875 18.0125 4.8125 18.0125 4.60625C17.9438 4.15938 17.875 3.74688 17.7031 3.36875C17.5312 2.95625 17.325 2.6125 17.0844 2.23438C16.9469 2.0625 16.8094 1.85625 16.6719 1.68438C16.6031 1.58125 16.5344 1.5125 16.4312 1.40938C16.3625 1.2375 16.2594 1.13438 16.1906 1.06563" fill="#42ADE2"/>
<path d="M3.43751 6.1875C2.75001 6.49687 2.50938 7.32187 2.81876 8.00937L7.15001 17.05L9.55626 15.9156L5.22501 6.84062C4.91563 6.15312 4.12501 5.84375 3.43751 6.1875V6.1875ZM14.8156 13.3719L17.3594 12.1687L12.4094 1.85625C12.0656 1.16875 11.2406 0.859373 10.5188 1.20312C9.83126 1.54687 9.52189 2.37187 9.86564 3.09375L14.8156 13.3719Z" fill="#FFE0BA"/>
<path d="M10.5531 1.16875C10.4844 1.20313 10.4156 1.2375 10.3469 1.30625C11 1.13438 11.6875 1.44375 11.9969 2.0625L16.9469 12.375L17.3937 12.1688L12.4437 1.85625C12.1 1.13438 11.275 0.825 10.5531 1.16875" fill="#EEBA96"/>
<path d="M9.55626 15.8812L12.2031 14.6094L7.15001 4.09062C6.80626 3.36874 5.91251 3.02499 5.19063 3.36874C4.46876 3.71249 4.15938 4.60624 4.50313 5.32812L9.55626 15.8812Z" fill="#FFE0BA"/>
<path d="M5.19063 3.40312C5.12188 3.43749 5.05313 3.47187 4.98438 3.54062C5.6375 3.36874 6.39375 3.67812 6.70313 4.33124L9.83125 10.8969L10.5875 11.3437L7.15 4.12499C6.80625 3.36874 5.94688 3.05937 5.19063 3.40312" fill="#EEBA96"/>
<path d="M11.7906 13.7844L14.4375 12.5125L9.38438 1.99375C9.04063 1.27188 8.14688 0.928125 7.42501 1.30625C6.70313 1.65 6.39376 2.54375 6.73751 3.26563L11.7906 13.7844Z" fill="#FFE0BA"/>
<path d="M7.42501 1.27188C7.35626 1.30625 7.28751 1.375 7.21876 1.40938C7.87189 1.2375 8.62814 1.54688 8.93751 2.2L12.4781 9.625L13.2344 10.0719L9.38439 1.99375C9.04064 1.2375 8.14689 0.928127 7.42501 1.27188ZM3.43751 6.1875C3.36876 6.22188 3.30001 6.25625 3.23126 6.325C3.85001 6.15313 4.50314 6.4625 4.77814 7.08125L7.35626 12.4781L8.11251 12.925L5.22501 6.875C4.91564 6.15313 4.12501 5.84375 3.43751 6.1875Z" fill="#EEBA96"/>
<path d="M20.9 5.15626C19.9719 4.43438 18.4594 5.22501 17.7031 7.7C17.1875 9.41875 17.1187 9.93438 16.0187 10.45L15.4 9.17813C15.4 9.17813 5.6375 13.8875 6.01562 14.6438C6.01562 14.6438 7.18437 18.2875 9.17812 19.9719C12.1344 22.5156 19.0437 19.8 19.3531 13.2344C19.525 9.41875 21.8969 5.94688 20.9 5.15626Z" fill="#FFE0BA"/>
<path d="M20.9 5.15624C20.7281 5.01874 20.5219 4.94999 20.3156 4.91562C20.35 4.94999 20.4188 4.94999 20.4531 4.98437C21.4844 5.77499 20.4188 7.59687 19.8344 9.24687C19.3531 10.5531 18.9406 11.8937 19.0094 13.2C19.2844 18.9062 13.5438 21.6219 10.1063 20.5906C13.475 22 19.7313 19.3187 19.4563 13.3719C19.3875 12.0656 19.7656 10.7937 20.2813 9.41874C20.8313 7.76874 21.8969 5.94687 20.9 5.15624" fill="#EEBA96"/>
<path d="M16.3281 10.3125C14.1969 10.5531 11.0688 13.6125 13.2688 16.9469C11.6531 13.5781 14.3 11.3094 15.9844 10.5188C16.1563 10.3813 16.3281 10.3125 16.3281 10.3125" fill="#EEBA96"/>
</svg>
